<?xml version="1.0" standalone="no"?>
<!DOCTYPE svg PUBLIC "-//W3C//DTD SVG 20010904//EN"
 "http://www.w3.org/TR/2001/REC-SVG-20010904/DTD/svg10.dtd">
<svg version="1.0" xmlns="http://www.w3.org/2000/svg"
 width="896.000000pt" height="896.000000pt" viewBox="0 0 896.000000 896.000000"
 preserveAspectRatio="xMidYMid meet">
<metadata>
Created by potrace 1.14, written by Peter Selinger 2001-2017
</metadata>
<g transform="translate(0.000000,896.000000) scale(0.100000,-0.100000)"
fill="#000000" stroke="none">
<path d="M3375 7054 c-224 -62 -658 -253 -1305 -575 -1123 -558 -1535 -805
-1813 -1085 -173 -175 -256 -346 -257 -529 -1 -237 167 -441 402 -489 l62 -12
12 -63 c36 -177 153 -312 320 -372 70 -25 286 -37 374 -21 30 6 57 9 59 7 2
-2 16 -129 32 -282 16 -153 35 -336 43 -408 9 -71 20 -215 26 -318 19 -336 77
-544 203 -732 121 -179 283 -289 487 -331 118 -23 363 -15 555 21 526 96 836
126 1805 175 900 46 1234 75 1650 146 1149 194 1975 652 2607 1444 78 97 243
331 243 344 0 3 -7 6 -15 6 -19 0 -20 -12 11 138 62 303 89 687 65 926 -31
312 -122 584 -274 814 -104 158 -196 253 -364 380 -42 31 -91 80 -117 116
-223 312 -550 522 -906 581 -396 67 -857 -110 -1199 -460 l-95 -96 -45 10
c-25 5 -62 12 -82 16 -34 5 -36 8 -48 58 -6 28 -30 90 -53 137 -47 98 -134
192 -211 229 -115 55 -258 51 -392 -13 -257 -122 -380 -370 -471 -950 -14 -88
-26 -161 -28 -163 -1 -1 -26 30 -54 70 -29 40 -70 91 -92 112 l-40 39 0 101
c0 180 -32 311 -102 416 -69 103 -173 164 -303 176 l-62 6 -17 76 c-35 163
-119 286 -234 343 -62 31 -75 33 -177 35 -92 2 -125 -2 -200 -23z m214 -264
c74 -39 80 -346 10 -558 -31 -94 -127 -179 -324 -287 -38 -21 -71 -39 -72 -40
-2 -1 13 -41 32 -89 81 -206 211 -631 365 -1186 45 -162 86 -311 92 -330 11
-33 13 -24 35 120 48 322 128 672 209 915 76 226 155 360 232 392 30 12 37 12
57 -1 128 -84 287 -458 494 -1161 43 -148 81 -263 84 -255 3 8 10 89 16 180
28 410 173 1451 236 1698 54 216 132 343 237 387 54 22 76 19 112 -17 112
-112 150 -629 105 -1438 -35 -659 -105 -1146 -228 -1595 -98 -360 -232 -618
-331 -640 -94 -21 -246 140 -425 450 -66 115 -245 468 -245 484 0 6 -4 11 -10
11 -5 0 -10 -7 -10 -16 0 -35 -113 -349 -178 -494 -125 -282 -249 -487 -367
-606 -50 -51 -82 -75 -112 -84 -39 -12 -45 -11 -87 14 -113 66 -247 331 -419
828 -177 510 -276 942 -417 1828 -28 173 -53 322 -56 332 -4 14 -19 8 -95 -37
-49 -29 -139 -77 -199 -107 -60 -29 -111 -57 -113 -63 -4 -10 28 -226 137
-945 93 -608 119 -887 120 -1305 1 -311 -9 -355 -112 -484 -101 -125 -334
-235 -463 -218 -122 16 -179 191 -258 787 -44 331 -95 820 -155 1509 -14 156
-27 286 -30 288 -2 2 -35 -11 -72 -30 -99 -49 -268 -122 -392 -168 -181 -67
-283 -91 -419 -96 -117 -5 -124 -4 -165 20 -57 33 -73 65 -73 146 0 93 34 158
143 273 142 148 331 283 672 480 410 236 1326 699 1785 903 406 180 593 238
654 205z m3696 -150 c168 -45 335 -141 463 -269 268 -265 384 -618 369 -1116
-17 -532 -145 -998 -363 -1327 -97 -145 -283 -316 -437 -402 -231 -128 -542
-187 -735 -138 -477 121 -762 675 -762 1482 0 338 47 622 146 887 146 392 413
690 740 827 75 31 203 69 269 80 62 9 232 -4 310 -24z"/>
<path d="M6902 5660 c-72 -33 -147 -121 -208 -245 -30 -60 -54 -113 -54 -117
0 -4 24 1 53 11 28 10 69 21 89 25 l38 7 -52 -68 c-238 -315 -267 -858 -58
-1096 117 -132 311 -78 445 123 139 209 226 592 196 855 -15 125 -35 197 -81
290 -94 193 -236 275 -368 215z"/>
</g>
</svg>
