<svg width="1920" height="1080" viewBox="0 0 1920 1080" fill="none"
	xmlns="http://www.w3.org/2000/svg">
	<path d="M0 406.146L21.3333 507.097C42.6667 608.049 85.3333 809.952 128 788.002C170.667 766.052 213.333 520.249 256 355.743C298.667 191.236 341.333 108.026 384 177.786C426.667 247.546 469.333 470.276 512 648.138C554.667 825.999 597.333 958.992 640 921.699C682.667 884.405 725.333 676.825 768 609.875C810.667 542.925 853.333 616.604 896 695.465C938.667 774.326 981.333 858.368 1024 768.483C1066.67 678.598 1109.33 414.785 1152 292.145C1194.67 169.506 1237.33 188.04 1280 284.084C1322.67 380.128 1365.33 553.681 1408 652.116C1450.67 750.551 1493.33 773.867 1536 716.923C1578.67 659.979 1621.33 522.775 1664 443.778C1706.67 364.78 1749.33 343.988 1792 401.616C1834.67 459.245 1877.33 595.294 1898.67 663.319L1920 731.343" stroke="#F8DCD8" stroke-width="600" stroke-linecap="round"/>
</svg>
