<svg width="1920" height="1377" viewBox="0 0 1920 1377" fill="none" xmlns="http://www.w3.org/2000/svg">
	<path d="M0 554.146L21.3333 655.097C42.6667 756.049 85.3333 957.952 128 936.002C170.667 914.052 213.333 668.249 256 503.743C298.667 339.236 341.333 256.026 384 325.786C426.667 395.546 469.333 618.276 512 796.138C554.667 973.999 597.333 1106.99 640 1069.7C682.667 1032.41 725.333 824.825 768 757.875C810.667 690.925 853.333 764.604 896 843.465C938.667 922.326 981.333 1006.37 1024 916.483C1066.67 826.598 1109.33 562.785 1152 440.145C1194.67 317.506 1237.33 336.04 1280 432.084C1322.67 528.128 1365.33 701.681 1408 800.116C1450.67 898.551 1493.33 921.867 1536 864.923C1578.67 807.979 1621.33 670.775 1664 591.778C1706.67 512.78 1749.33 491.988 1792 549.616C1834.67 607.245 1877.33 743.294 1898.67 811.319L1920 879.343" stroke="#F8DCD8" stroke-width="600" stroke-linecap="round" />
</svg>
