<svg width="25" height="24" viewBox="0 0 25 24" fill="#26103D" xmlns="http://www.w3.org/2000/svg">
	<path d="M23.6678 0.550626C22.9579 -0.159271 21.8111 -0.159271 21.1012 0.550626L12.2002 9.43345L3.29917 0.532423C2.58927 -0.177474 1.44252 -0.177474 0.732619 0.532423C0.0227209 1.24232 0.0227209 2.38908 0.732619 3.09898L9.63364 12L0.732619 20.901C0.0227209 21.6109 0.0227209 22.7577 0.732619 23.4676C1.44252 24.1775 2.58927 24.1775 3.29917 23.4676L12.2002 14.5666L21.1012 23.4676C21.8111 24.1775 22.9579 24.1775 23.6678 23.4676C24.3777 22.7577 24.3777 21.6109 23.6678 20.901L14.7667 12L23.6678 3.09898C24.3595 2.40728 24.3595 1.24232 23.6678 0.550626Z" />
</svg>
