<svg width="47" height="46" viewBox="0 0 47 46" fill="none"
	xmlns="http://www.w3.org/2000/svg">
	<path d="M24.2178 14.8072C26.8684 14.8072 27.2298 14.8072 28.3142 14.8072C29.278 14.8072 29.7599 15.0482 30.1214 15.1687C30.6033 15.4096 30.9648 15.5301 31.3262 15.8916C31.6877 16.253 31.9286 16.6145 32.0491 17.0964C32.1696 17.4578 32.2901 17.9398 32.4105 18.9036C32.4105 19.988 32.4105 20.2289 32.4105 23C32.4105 25.7711 32.4105 26.0121 32.4105 27.0964C32.4105 28.0602 32.1696 28.5422 32.0491 28.9036C31.8081 29.3855 31.6877 29.747 31.3262 30.1084C30.9648 30.4699 30.6033 30.7108 30.1214 30.8313C29.7599 30.9518 29.278 31.0723 28.3142 31.1928C27.2298 31.1928 26.9889 31.1928 24.2178 31.1928C21.4467 31.1928 21.2057 31.1928 20.1214 31.1928C19.1575 31.1928 18.6756 30.9518 18.3142 30.8313C17.8322 30.5904 17.4708 30.4699 17.1093 30.1084C16.7479 29.747 16.5069 29.3855 16.3864 28.9036C16.266 28.5422 16.1455 28.0602 16.025 27.0964C16.025 26.0121 16.025 25.7711 16.025 23C16.025 20.2289 16.025 19.988 16.025 18.9036C16.025 17.9398 16.266 17.4578 16.3864 17.0964C16.6274 16.6145 16.7479 16.253 17.1093 15.8916C17.4708 15.5301 17.8322 15.2892 18.3142 15.1687C18.6756 15.0482 19.1575 14.9277 20.1214 14.8072C21.2057 14.8072 21.5672 14.8072 24.2178 14.8072ZM24.2178 13C21.4467 13 21.2057 13 20.1214 13C19.0371 13 18.3142 13.241 17.7118 13.4819C17.1093 13.7229 16.5069 14.0843 15.9045 14.6867C15.3021 15.2892 15.0611 15.7711 14.6997 16.494C14.4587 17.0964 14.3383 17.8193 14.2178 18.9036C14.2178 19.988 14.2178 20.3494 14.2178 23C14.2178 25.7711 14.2178 26.0121 14.2178 27.0964C14.2178 28.1807 14.4587 28.9036 14.6997 29.506C14.9407 30.1084 15.3021 30.7108 15.9045 31.3133C16.5069 31.9157 16.9889 32.1566 17.7118 32.5181C18.3142 32.759 19.0371 32.8795 20.1214 33C21.2057 33 21.5672 33 24.2178 33C26.8684 33 27.2298 33 28.3142 33C29.3985 33 30.1214 32.759 30.7238 32.5181C31.3262 32.2771 31.9286 31.9157 32.531 31.3133C33.1334 30.7108 33.3744 30.2289 33.7358 29.506C33.9768 28.9036 34.0973 28.1807 34.2178 27.0964C34.2178 26.0121 34.2178 25.6506 34.2178 23C34.2178 20.3494 34.2178 19.988 34.2178 18.9036C34.2178 17.8193 33.9768 17.0964 33.7358 16.494C33.4949 15.8916 33.1334 15.2892 32.531 14.6867C31.9286 14.0843 31.4467 13.8434 30.7238 13.4819C30.1214 13.241 29.3985 13.1205 28.3142 13C27.2298 13 26.9889 13 24.2178 13Z" fill="#26103D"/>
	<path d="M24.2178 17.8193C21.3262 17.8193 19.0371 20.1084 19.0371 23C19.0371 25.8916 21.3262 28.1807 24.2178 28.1807C27.1093 28.1807 29.3985 25.8916 29.3985 23C29.3985 20.1084 27.1093 17.8193 24.2178 17.8193ZM24.2178 26.3735C22.4105 26.3735 20.8443 24.9277 20.8443 23C20.8443 21.1928 22.2901 19.6265 24.2178 19.6265C26.025 19.6265 27.5913 21.0723 27.5913 23C27.5913 24.8072 26.025 26.3735 24.2178 26.3735Z" fill="#26103D"/>
	<path d="M29.519 18.9036C30.1844 18.9036 30.7238 18.3642 30.7238 17.6988C30.7238 17.0334 30.1844 16.494 29.519 16.494C28.8536 16.494 28.3142 17.0334 28.3142 17.6988C28.3142 18.3642 28.8536 18.9036 29.519 18.9036Z" fill="#26103D"/>
</svg>
