<svg width="47" height="46" viewBox="0 0 47 46" fill="#26103D"
	xmlns="http://www.w3.org/2000/svg">
	<path d="M31.5811 24.1981V30H28.3524V24.5519C28.3524 23.2075 27.8815 22.2877 26.738 22.2877C25.8636 22.2877 25.3254 22.9245 25.1237 23.4906C25.0564 23.7028 24.9891 23.9858 24.9891 24.3396V30H21.7604C21.7604 30 21.8277 20.8019 21.7604 19.8821H24.9891V21.2972C25.3927 20.5896 26.1999 19.5991 27.8815 19.5991C29.9667 19.5991 31.5811 21.0849 31.5811 24.1981ZM18.3972 15C17.321 15 16.5811 15.7783 16.5811 16.7689C16.5811 17.7594 17.2537 18.5377 18.3299 18.5377C19.4734 18.5377 20.1461 17.7594 20.1461 16.7689C20.2133 15.7075 19.5407 15 18.3972 15ZM16.7828 30H20.0115V19.8821H16.7828V30Z" />
</svg>
