<svg width="49" height="48" viewBox="0 0 49 48" fill="none"
	xmlns="http://www.w3.org/2000/svg">
	<path d="M23.8595 0.568948C23.9496 -0.189649 25.0504 -0.189649 25.1405 0.568948L25.8956 6.93289C26.8706 15.1505 33.3496 21.6294 41.567 22.6044L47.931 23.3595C48.6897 23.4496 48.6897 24.5504 47.931 24.6405L41.567 25.3956C33.3496 26.3706 26.8706 32.8496 25.8956 41.067L25.1405 47.431C25.0504 48.1897 23.9496 48.1897 23.8595 47.431L23.1044 41.067C22.1294 32.8496 15.6505 26.3706 7.43289 25.3956L1.06895 24.6405C0.310351 24.5504 0.310351 23.4496 1.06895 23.3595L7.43289 22.6044C15.6505 21.6294 22.1294 15.1505 23.1044 6.93289L23.8595 0.568948Z" fill="#FED33D"/>
</svg>
