<svg width="410" height="410" viewBox="0 0 410 410" fill="none"
	xmlns="http://www.w3.org/2000/svg">
	<path d="M228.406 22.8155L228.923 23.289L229.544 22.9653L257.707 8.29563L274.762 35.0813L275.138 35.6723L275.822 35.5205L306.822 28.6397L316.363 58.9268L316.573 59.595L317.273 59.6254L348.998 61.0024L350.375 92.7269L350.405 93.4268L351.073 93.6373L381.36 103.178L374.48 134.178L374.328 134.862L374.919 135.238L401.704 152.293L387.035 180.456L386.711 181.077L387.184 181.594L408.643 205L387.184 228.406L386.711 228.923L387.035 229.544L401.704 257.707L374.919 274.762L374.328 275.138L374.48 275.822L381.36 306.822L351.073 316.363L350.405 316.573L350.375 317.273L348.998 348.998L317.273 350.375L316.573 350.405L316.363 351.073L306.822 381.36L275.822 374.48L275.138 374.328L274.762 374.919L257.707 401.704L229.544 387.035L228.923 386.711L228.406 387.184L205 408.643L181.594 387.184L181.077 386.711L180.456 387.035L152.293 401.704L135.238 374.919L134.862 374.328L134.178 374.48L103.178 381.36L93.6373 351.073L93.4268 350.405L92.7269 350.375L61.0024 348.998L59.6254 317.273L59.595 316.573L58.9268 316.363L28.6397 306.822L35.5205 275.822L35.6723 275.138L35.0813 274.762L8.29563 257.707L22.9653 229.544L23.289 228.923L22.8155 228.406L1.35666 205L22.8155 181.594L23.289 181.077L22.9653 180.456L8.29563 152.293L35.0813 135.238L35.6723 134.862L35.5205 134.178L28.6397 103.178L58.9268 93.6373L59.595 93.4268L59.6254 92.7269L61.0024 61.0024L92.7269 59.6254L93.4268 59.595L93.6373 58.9268L103.178 28.6397L134.178 35.5205L134.862 35.6723L135.238 35.0813L152.293 8.29563L180.456 22.9653L181.077 23.289L181.594 22.8155L205 1.35666L228.406 22.8155Z" fill="#FFADE3" stroke="#26103D" stroke-width="2"/>
</svg>
