<svg width="47" height="46" viewBox="0 0 47 46" fill="#26103D"
	xmlns="http://www.w3.org/2000/svg">
	<path d="M27.6581 13.7C27.6581 13.8 27.6581 13.9 27.5581 13.9H27.3581C27.2581 13.9 27.2581 14.1 27.2581 14.2C27.2581 14.3 27.1581 14.3 26.9581 14.5C23.5581 21.2 23.3581 20.9 23.2581 21.8L23.0581 23.2C22.9581 23.7 22.7581 24.2 22.4581 24.6L16.1581 33.4C15.8581 33.8 15.3581 34 14.8581 34C13.1581 33.8 11.5581 32.6 10.8581 31.1C10.5581 30.6 10.6581 30 10.9581 29.6L17.2581 20.8C17.5581 20.4 17.9581 20 18.4581 19.8L19.6581 19.1C20.4581 18.7 20.0581 18.6 25.3581 13.2C25.3581 13 25.3581 12.9 25.4581 12.9C25.5581 12.9 25.7581 12.9 25.7581 12.7V12.5C25.7581 12.4 25.7581 12.3 25.8581 12.3C26.0581 12.3 26.4581 12.3 26.9581 12.7C27.4581 13.2 27.5581 13.6 27.6581 13.7Z" />
	<path d="M19.7581 13.9H19.9581C20.0581 13.9 20.0581 14.1 20.0581 14.2C20.0581 14.3 20.1581 14.3 20.3581 14.5C20.6581 15.2 21.0581 15.8 21.2581 16.4C21.7581 15.9 22.3581 15.2 23.1581 14.4C22.8581 14 22.4581 13.7 22.0581 13.3C22.0581 13.1 22.0581 13 21.9581 13C21.8581 13 21.6581 13 21.6581 12.8V12.6C21.6581 12.5 21.6581 12.4 21.5581 12.4C21.3581 12.4 20.9581 12.4 20.4581 12.8C19.9581 13.2 19.7581 13.5 19.7581 13.7C19.6581 13.8 19.6581 13.9 19.7581 13.9Z" />
	<path d="M36.358 29.6L30.058 20.8C29.758 20.4 29.358 20 28.858 19.8L27.658 19.1C27.258 18.9 27.158 18.7 26.158 17.6C25.358 19.2 24.758 20.2 24.458 20.7C24.058 21.5 23.958 21.5 23.958 21.8L24.158 23.1C24.258 23.6 24.458 24.1 24.758 24.5L31.058 33.3C31.358 33.7 31.958 34 32.458 33.9C34.158 33.7 35.758 32.5 36.458 31C36.758 30.6 36.658 30 36.358 29.6Z" />
</svg>
